<svg width="236" height="229" viewBox="0 0 236 229" fill="none" xmlns="http://www.w3.org/2000/svg">
<path d="M204.365 65.8227L223.811 46.3773L184.92 7.48644L165.475 26.9319L204.365 65.8227ZM60.7941 209.394L204.365 65.8227L165.475 26.9319L21.9032 170.503L60.7941 209.394Z" fill="#BA2649"/>
<path d="M207.891 55.5L235.391 55.5L235.391 0.500021L207.891 0.500018L207.891 55.5ZM-2.40413e-06 55.5L207.891 55.5L207.891 0.500018L2.40413e-06 0.5L-2.40413e-06 55.5Z" fill="#BA2649"/>
<path d="M235.391 36.04L235.391 8.54001L180.391 8.54001L180.391 36.04L235.391 36.04ZM235.391 229L235.391 36.04L180.391 36.04L180.391 229L235.391 229Z" fill="#BA2649"/>
</svg>
