<svg width="226" height="139" viewBox="0 0 226 139" fill="none" xmlns="http://www.w3.org/2000/svg">
<g filter="url(#filter0_d_801_67)">
<path d="M44.486 74V44.6H50.114L67.46 65.768H64.73V44.6H71.45V74H65.864L48.476 52.832H51.206V74H44.486ZM84.0339 59.342H95.7099V64.172H84.0339V59.342ZM84.7059 68.918H97.5999V74H78.1539V49.85H97.1379V54.932H84.7059V68.918ZM99.1621 74L109.998 59.468L109.956 64.046L99.5821 49.85H107.058L113.694 59.216H110.544L117.138 49.85H124.404L114.072 63.752V59.384L124.866 74H117.222L110.46 64.214H113.526L106.764 74H99.1621ZM131.499 74V55.016H123.897V49.85H145.737V55.016H138.135V74H131.499Z" fill="white"/>
</g>
<g filter="url(#filter1_d_801_67)">
<path d="M58.36 94.12C57.3067 94.12 56.3333 93.9467 55.44 93.6C54.5467 93.24 53.7733 92.74 53.12 92.1C52.4667 91.46 51.9533 90.7067 51.58 89.84C51.22 88.9733 51.04 88.0267 51.04 87C51.04 85.9733 51.22 85.0267 51.58 84.16C51.9533 83.2933 52.4667 82.54 53.12 81.9C53.7867 81.26 54.5667 80.7667 55.46 80.42C56.3533 80.06 57.3267 79.88 58.38 79.88C59.3933 79.88 60.3467 80.0533 61.24 80.4C62.1333 80.7333 62.8867 81.24 63.5 81.92L62.56 82.86C61.9867 82.2733 61.3533 81.8533 60.66 81.6C59.9667 81.3333 59.22 81.2 58.42 81.2C57.58 81.2 56.8 81.3467 56.08 81.64C55.36 81.92 54.7333 82.3267 54.2 82.86C53.6667 83.38 53.2467 83.9933 52.94 84.7C52.6467 85.3933 52.5 86.16 52.5 87C52.5 87.84 52.6467 88.6133 52.94 89.32C53.2467 90.0133 53.6667 90.6267 54.2 91.16C54.7333 91.68 55.36 92.0867 56.08 92.38C56.8 92.66 57.58 92.8 58.42 92.8C59.22 92.8 59.9667 92.6667 60.66 92.4C61.3533 92.1333 61.9867 91.7067 62.56 91.12L63.5 92.06C62.8867 92.74 62.1333 93.2533 61.24 93.6C60.3467 93.9467 59.3867 94.12 58.36 94.12ZM66.3188 94V82.7H70.6988C71.6854 82.7 72.5254 82.8533 73.2188 83.16C73.9254 83.4667 74.4721 83.9133 74.8588 84.5C75.2454 85.0733 75.4388 85.7733 75.4388 86.6C75.4388 87.4 75.2454 88.0933 74.8588 88.68C74.4721 89.2667 73.9254 89.7133 73.2188 90.02C72.5254 90.3267 71.6854 90.48 70.6988 90.48H67.1188L67.7588 89.84V94H66.3188ZM74.0588 94L71.0988 89.9H72.6788L75.6188 94H74.0588ZM67.7588 89.98L67.1988 89.3H70.6388C71.7321 89.3 72.5654 89.0667 73.1388 88.6C73.7121 88.12 73.9988 87.4533 73.9988 86.6C73.9988 85.7333 73.7121 85.0667 73.1388 84.6C72.5654 84.1333 71.7321 83.9 70.6388 83.9H67.1988L67.7588 83.22V89.98ZM79.9992 87.68H86.0792V88.86H79.9992V87.68ZM80.2392 92.8H87.0192V94H78.7992V82.7H86.7792V83.9H80.2392V92.8ZM88.0673 94L93.2873 82.7H94.7073L99.9273 94H98.4873L93.7473 83.48H94.2473L89.4873 94H88.0673ZM90.2673 91.08L90.6873 89.92H97.1273L97.5473 91.08H90.2673ZM103.337 94V83.9H99.3573V82.7H108.757V83.9H104.777V94H103.337ZM115.653 94.12C114.506 94.12 113.473 93.8733 112.553 93.38C111.633 92.8733 110.906 92.1867 110.373 91.32C109.853 90.44 109.593 89.4467 109.593 88.34C109.593 87.2333 109.853 86.2467 110.373 85.38C110.906 84.5133 111.633 83.8267 112.553 83.32C113.473 82.8133 114.506 82.56 115.653 82.56C116.813 82.56 117.846 82.8133 118.753 83.32C119.673 83.8267 120.393 84.5133 120.913 85.38C121.446 86.2467 121.713 87.2333 121.713 88.34C121.713 89.4467 121.446 90.44 120.913 91.32C120.393 92.1867 119.673 92.8733 118.753 93.38C117.846 93.8733 116.813 94.12 115.653 94.12ZM115.653 92.88C116.546 92.88 117.339 92.6867 118.033 92.3C118.726 91.9 119.273 91.36 119.673 90.68C120.073 89.9867 120.273 89.2067 120.273 88.34C120.273 87.4733 120.066 86.7 119.653 86.02C119.253 85.34 118.706 84.8067 118.013 84.42C117.333 84.02 116.546 83.82 115.653 83.82C114.773 83.82 113.979 84.02 113.273 84.42C112.579 84.8067 112.033 85.34 111.633 86.02C111.233 86.7 111.033 87.4733 111.033 88.34C111.033 89.2067 111.233 89.9867 111.633 90.68C112.033 91.36 112.579 91.9 113.273 92.3C113.979 92.6867 114.773 92.88 115.653 92.88ZM124.776 94V82.7H129.156C130.142 82.7 130.982 82.8533 131.676 83.16C132.382 83.4667 132.929 83.9133 133.316 84.5C133.702 85.0733 133.896 85.7733 133.896 86.6C133.896 87.4 133.702 88.0933 133.316 88.68C132.929 89.2667 132.382 89.7133 131.676 90.02C130.982 90.3267 130.142 90.48 129.156 90.48H125.576L126.216 89.84V94H124.776ZM132.516 94L129.556 89.9H131.136L134.076 94H132.516ZM126.216 89.98L125.656 89.3H129.096C130.189 89.3 131.022 89.0667 131.596 88.6C132.169 88.12 132.456 87.4533 132.456 86.6C132.456 85.7333 132.169 85.0667 131.596 84.6C131.022 84.1333 130.189 83.9 129.096 83.9H125.656L126.216 83.22V89.98ZM144.756 90.92C144.756 91.5467 144.583 92.1 144.236 92.58C143.903 93.06 143.41 93.44 142.756 93.72C142.116 93.9867 141.323 94.12 140.376 94.12C139.51 94.12 138.676 93.9867 137.876 93.72C137.09 93.4533 136.47 93.1133 136.016 92.7L136.616 91.58C137.03 91.9667 137.576 92.2867 138.256 92.54C138.95 92.78 139.67 92.9 140.416 92.9C141.456 92.9 142.196 92.72 142.636 92.36C143.09 91.9867 143.316 91.5467 143.316 91.04C143.316 90.6133 143.19 90.28 142.936 90.04C142.683 89.7867 142.35 89.5867 141.936 89.44C141.523 89.28 141.07 89.1467 140.576 89.04C140.083 88.9333 139.59 88.8133 139.096 88.68C138.603 88.5467 138.143 88.3667 137.716 88.14C137.303 87.9133 136.97 87.6133 136.716 87.24C136.476 86.8667 136.356 86.3733 136.356 85.76C136.356 85.1467 136.523 84.6 136.856 84.12C137.19 83.64 137.676 83.26 138.316 82.98C138.956 82.7 139.743 82.56 140.676 82.56C141.343 82.56 141.996 82.6467 142.636 82.82C143.29 82.98 143.85 83.2267 144.316 83.56L143.796 84.72C143.316 84.3867 142.803 84.1533 142.256 84.02C141.71 83.8733 141.17 83.8 140.636 83.8C139.65 83.8 138.923 83.9867 138.456 84.36C138.003 84.72 137.776 85.1667 137.776 85.7C137.776 86.1267 137.903 86.4667 138.156 86.72C138.41 86.96 138.743 87.16 139.156 87.32C139.57 87.4667 140.023 87.5933 140.516 87.7C141.023 87.8067 141.523 87.9267 142.016 88.06C142.51 88.1933 142.963 88.3733 143.376 88.6C143.79 88.8133 144.123 89.1067 144.376 89.48C144.63 89.8533 144.756 90.3333 144.756 90.92Z" fill="white"/>
</g>
<line x1="153.071" y1="11.9289" x2="218.071" y2="76.9289" stroke="white" stroke-width="20"/>
<line y1="-10" x2="91.9239" y2="-10" transform="matrix(0.707107 -0.707107 -0.707107 -0.707107 146 119.645)" stroke="white" stroke-width="20"/>
<defs>
<filter id="filter0_d_801_67" x="0.486084" y="0.599976" width="189.25" height="117.4" filterUnits="userSpaceOnUse" color-interpolation-filters="sRGB">
<feFlood flood-opacity="0" result="BackgroundImageFix"/>
<feColorMatrix in="SourceAlpha" type="matrix" values="0 0 0 0 0 0 0 0 0 0 0 0 0 0 0 0 0 0 127 0" result="hardAlpha"/>
<feOffset/>
<feGaussianBlur stdDeviation="22"/>
<feComposite in2="hardAlpha" operator="out"/>
<feColorMatrix type="matrix" values="0 0 0 0 0 0 0 0 0 0 0 0 0 0 0 0 0 0 1 0"/>
<feBlend mode="normal" in2="BackgroundImageFix" result="effect1_dropShadow_801_67"/>
<feBlend mode="normal" in="SourceGraphic" in2="effect1_dropShadow_801_67" result="shape"/>
</filter>
<filter id="filter1_d_801_67" x="7.04004" y="35.88" width="181.716" height="102.24" filterUnits="userSpaceOnUse" color-interpolation-filters="sRGB">
<feFlood flood-opacity="0" result="BackgroundImageFix"/>
<feColorMatrix in="SourceAlpha" type="matrix" values="0 0 0 0 0 0 0 0 0 0 0 0 0 0 0 0 0 0 127 0" result="hardAlpha"/>
<feOffset/>
<feGaussianBlur stdDeviation="22"/>
<feComposite in2="hardAlpha" operator="out"/>
<feColorMatrix type="matrix" values="0 0 0 0 0 0 0 0 0 0 0 0 0 0 0 0 0 0 1 0"/>
<feBlend mode="normal" in2="BackgroundImageFix" result="effect1_dropShadow_801_67"/>
<feBlend mode="normal" in="SourceGraphic" in2="effect1_dropShadow_801_67" result="shape"/>
</filter>
</defs>
</svg>
