<svg width="652" height="653" viewBox="0 0 652 653" fill="none" xmlns="http://www.w3.org/2000/svg">
<g filter="url(#filter0_df_801_24)">
<path d="M151 215.179C151 179.832 179.654 151.179 215 151.179H437C472.346 151.179 501 179.832 501 215.179V437.179C501 472.525 472.346 501.179 437 501.179H215C179.654 501.179 151 472.525 151 437.179V215.179Z" fill="#FFC700"/>
</g>
<line y1="-27.5" x2="385" y2="-27.5" transform="matrix(-4.00782e-08 1 1 4.76739e-08 523 134)" stroke="white" stroke-width="55"/>
<line x1="155.5" y1="134" x2="155.5" y2="519" stroke="white" stroke-width="55"/>
<path d="M325.341 238.819C374.958 238.819 415.181 279.042 415.181 328.659C415.181 378.277 374.958 418.5 325.341 418.5C275.723 418.5 235.5 378.277 235.5 328.659C235.5 279.042 275.723 238.819 325.341 238.819Z" stroke="white" stroke-width="55"/>
<defs>
<filter id="filter0_df_801_24" x="0" y="0.178711" width="652" height="652" filterUnits="userSpaceOnUse" color-interpolation-filters="sRGB">
<feFlood flood-opacity="0" result="BackgroundImageFix"/>
<feColorMatrix in="SourceAlpha" type="matrix" values="0 0 0 0 0 0 0 0 0 0 0 0 0 0 0 0 0 0 127 0" result="hardAlpha"/>
<feOffset/>
<feGaussianBlur stdDeviation="75.5"/>
<feComposite in2="hardAlpha" operator="out"/>
<feColorMatrix type="matrix" values="0 0 0 0 1 0 0 0 0 0.78 0 0 0 0 0 0 0 0 0.5 0"/>
<feBlend mode="normal" in2="BackgroundImageFix" result="effect1_dropShadow_801_24"/>
<feBlend mode="normal" in="SourceGraphic" in2="effect1_dropShadow_801_24" result="shape"/>
<feGaussianBlur stdDeviation="2" result="effect2_foregroundBlur_801_24"/>
</filter>
</defs>
</svg>
