<svg width="60" height="60" viewBox="0 0 60 60" fill="none" xmlns="http://www.w3.org/2000/svg">
<path d="M58.6353 29.8365C58.6353 46.0428 45.617 59.1729 29.5677 59.1729C13.5183 59.1729 0.5 46.0428 0.5 29.8365C0.5 13.6301 13.5183 0.5 29.5677 0.5C45.617 0.5 58.6353 13.6301 58.6353 29.8365Z" stroke="white"/>
<path d="M29.588 16.7114C26.0178 16.7114 25.5728 16.7287 24.1756 16.7878C22.7727 16.8567 21.8237 17.0743 20.9863 17.3994C20.1227 17.7376 19.3872 18.1866 18.6607 18.9173C17.9292 19.6438 17.4761 20.3793 17.1428 21.2429C16.8177 22.0803 16.6001 23.0293 16.5312 24.4322C16.468 25.8303 16.4548 26.2744 16.4548 29.8446C16.4548 33.4148 16.4721 33.8597 16.5312 35.2569C16.6001 36.6558 16.8177 37.6089 17.1428 38.4462C17.481 39.3098 17.93 40.0454 18.6607 40.7719C19.3872 41.5034 20.1227 41.9565 20.9863 42.2898C21.8237 42.6108 22.7768 42.8324 24.1756 42.9014C25.5737 42.9646 26.0178 42.9777 29.588 42.9777C33.1582 42.9777 33.6031 42.9605 35.0003 42.9014C36.3992 42.8324 37.3523 42.61 38.1896 42.2898C39.0532 41.9516 39.7888 41.5025 40.5153 40.7719C41.2468 40.0454 41.6999 39.3139 42.0332 38.4462C42.3542 37.6089 42.5758 36.6558 42.6448 35.2569C42.708 33.8589 42.7211 33.4148 42.7211 29.8446C42.7211 26.2744 42.7039 25.8294 42.6448 24.4322C42.5758 23.0334 42.3534 22.0753 42.0332 21.2429C41.695 20.3793 41.2459 19.6438 40.5153 18.9173C39.7888 18.1858 39.0574 17.7327 38.1896 17.3994C37.3523 17.0743 36.3992 16.8567 35.0003 16.7878C33.6023 16.7246 33.1582 16.7114 29.588 16.7114ZM29.588 19.0757C33.0942 19.0757 33.5128 19.0929 34.8985 19.152C36.1767 19.212 36.8729 19.4254 37.3351 19.606C37.9516 19.8449 38.3826 20.1273 38.8488 20.5887C39.3061 21.0459 39.5885 21.4818 39.8274 22.0983C40.008 22.5605 40.2214 23.2567 40.2814 24.5348C40.3405 25.9206 40.3577 26.3401 40.3577 29.8454C40.3577 33.3507 40.3405 33.7702 40.2764 35.156C40.2075 36.4341 39.994 37.1303 39.8142 37.5925C39.5655 38.209 39.288 38.64 38.83 39.1063C38.3678 39.5635 37.9278 39.8459 37.3162 40.0848C36.8597 40.2654 36.1537 40.4788 34.8706 40.5388C33.4775 40.5979 33.0671 40.6151 29.5519 40.6151C26.0367 40.6151 25.627 40.5979 24.2323 40.5338C22.9541 40.4649 22.2489 40.2514 21.7867 40.0717C21.1628 39.8229 20.7351 39.5455 20.2771 39.0874C19.8149 38.6252 19.521 38.1852 19.2944 37.5736C19.1105 37.1172 18.9004 36.4112 18.8322 35.1281C18.7854 33.7514 18.7633 33.3245 18.7633 29.8257C18.7633 26.3286 18.7854 25.9009 18.8322 24.5069C18.9004 23.2238 19.1105 22.5195 19.2944 22.0614C19.521 21.4367 19.8157 21.0098 20.2771 20.5476C20.7343 20.0904 21.1628 19.7948 21.7867 19.5633C22.2489 19.3835 22.9369 19.1701 24.22 19.1061C25.6131 19.056 26.0235 19.0379 29.5338 19.0379L29.588 19.0757ZM29.588 23.104C25.8602 23.104 22.8457 26.1225 22.8457 29.8462C22.8457 33.574 25.8643 36.5885 29.588 36.5885C33.3158 36.5885 36.3302 33.5699 36.3302 29.8462C36.3302 26.1184 33.3117 23.104 29.588 23.104ZM29.588 34.2242C27.1679 34.2242 25.21 32.2663 25.21 29.8462C25.21 27.4261 27.1679 25.4682 29.588 25.4682C32.0081 25.4682 33.966 27.4261 33.966 29.8462C33.966 32.2663 32.0081 34.2242 29.588 34.2242ZM38.1781 22.8347C38.1781 23.7073 37.468 24.4117 36.5995 24.4117C35.7269 24.4117 35.0225 23.7065 35.0225 22.8347C35.0225 21.967 35.7318 21.261 36.5995 21.261C37.4672 21.261 38.1781 21.967 38.1781 22.8347Z" fill="white"/>
</svg>
