<svg width="60" height="60" viewBox="0 0 60 60" fill="none" xmlns="http://www.w3.org/2000/svg">
<path d="M59.5001 29.8365C59.5001 46.0428 46.4818 59.1729 30.4324 59.1729C14.383 59.1729 1.36475 46.0428 1.36475 29.8365C1.36475 13.6301 14.383 0.5 30.4324 0.5C46.4818 0.5 59.5001 13.6301 59.5001 29.8365Z" stroke="white"/>
<path d="M30.6163 12.6489C21.052 12.6489 13.2327 20.4683 13.2327 30.0326C13.2327 39.5968 21.052 47.4162 30.6163 47.4162C40.1805 47.4162 47.9999 39.5968 47.9999 30.0326C47.9999 20.4683 40.2642 12.6489 30.6163 12.6489ZM38.6128 37.7683C38.2662 38.2887 37.6556 38.4636 37.1352 38.1127C33.05 35.5953 27.9229 35.0738 21.8343 36.4612C21.2291 36.6405 20.7076 36.2059 20.5316 35.679C20.3621 35.0738 20.7924 34.5534 21.3128 34.3785C27.9229 32.9009 33.6606 33.506 38.176 36.2907C38.7877 36.5514 38.8713 37.2468 38.6117 37.7683H38.6128ZM40.6999 32.9867C40.2642 33.5984 39.483 33.8591 38.8713 33.4224C34.181 30.553 27.0505 29.6881 21.579 31.4243C20.8825 31.5938 20.0959 31.2494 19.9264 30.5519C19.7515 29.8565 20.0959 29.0754 20.7924 28.9004C27.1417 26.9872 34.9611 27.9487 40.349 31.2483C40.8748 31.5091 41.1356 32.3804 40.6999 32.9867ZM40.8759 28.1204C35.3077 24.8142 26.0096 24.4698 20.7076 26.1223C19.8374 26.382 18.9703 25.8616 18.7096 25.075C18.4499 24.209 18.9703 23.3377 19.7515 23.0769C25.926 21.2506 36.0932 21.6004 42.5284 25.4248C43.3096 25.8605 43.5682 26.9024 43.1336 27.6836C42.6979 28.2953 41.656 28.5539 40.8748 28.1193L40.8759 28.1204Z" fill="white"/>
</svg>
