<svg width="60" height="60" viewBox="0 0 60 60" fill="none" xmlns="http://www.w3.org/2000/svg">
<path d="M58.6993 29.8365C58.6993 46.0428 45.681 59.1729 29.6316 59.1729C13.5823 59.1729 0.563965 46.0428 0.563965 29.8365C0.563965 13.6301 13.5823 0.5 29.6316 0.5C45.681 0.5 58.6993 13.6301 58.6993 29.8365Z" stroke="white"/>
<path d="M45.7344 19.8344C44.5483 20.3544 43.2786 20.7122 41.9403 20.8744C43.3058 20.0551 44.3498 18.7592 44.8476 17.2153C43.5668 17.961 42.1499 18.5012 40.6433 18.8065C39.4421 17.5206 37.7249 16.7114 35.8192 16.7114C32.1662 16.7114 29.2054 19.6712 29.2054 23.3192C29.2054 23.8442 29.2689 24.3481 29.3787 24.8258C23.8835 24.5688 19.0121 21.9285 15.754 17.9399C15.1816 18.9113 14.8561 20.04 14.8561 21.2684C14.8561 23.5671 16.0261 25.5826 17.7947 26.7677C16.7134 26.7365 15.6956 26.4372 14.8037 25.9444V26.024C14.8037 29.2296 17.0812 31.9022 20.1045 32.5108C19.5532 32.657 18.9647 32.7416 18.3671 32.7416C17.9429 32.7416 17.5378 32.7003 17.1336 32.6257C17.9842 35.2499 20.4189 37.1606 23.3212 37.218C21.0649 38.9866 18.2049 40.0407 15.1232 40.0407C14.5982 40.0407 14.0741 40.0155 13.5481 39.952C16.4877 41.8264 19.9573 42.9228 23.7051 42.9228C35.8656 42.9228 42.5107 32.8504 42.5107 24.1274C42.5107 23.8493 42.5107 23.5661 42.4895 23.2819C43.7865 22.3578 44.9091 21.1868 45.7959 19.8596L45.7344 19.8344Z" fill="white"/>
</svg>
